<?xml version="1.0" encoding="UTF-8"?>
<svg id="_Слой_2" data-name="Слой 2" xmlns="http://www.w3.org/2000/svg" viewBox="0 0 2611.34 2308.12">
  <defs>
    <style>
      .cls-1, .cls-2 {
        fill: #fff;
      }

      .cls-2 {
        fill-rule: evenodd;
      }
    </style>
  </defs>
  <g id="_Слой_1-2" data-name="Слой 1">
    <g>
      <g>
        <g>
          <path class="cls-2" d="m1487.06,899.46c-7.06.42-14.13.62-21.19.83-8.1.42-16.21.62-24.1.83l-45.29.62c-15.17.21-30.34.21-45.3.21l-25.97.21h-1.45c-6.65.42-12.26,5.61-12.88,12.26v2.7l-.21,6.86-1.04,32c-.83,21.4-1.87,42.8-3.53,64-1.66-21.4-2.7-42.8-3.53-64l-1.04-32-.21-7.06v-2.29h0c-.62-6.65-6.23-12.05-12.88-12.47h0c-.21,0-.62,0-.83,0h-.83l-25.97-.21c-15.17-.21-30.13,0-45.3-.42l-45.3-.62c-6.44,0-13.09-.21-19.74-.42-8.73-.21-17.25-.62-25.56-1.25l45.3-.83,45.3-.42c27.84-.21,55.48-.21,83.32-.42,1.04-.42,1.87-1.25,2.49-2.08.42-.83.83-1.66.83-2.7h0v-.62l-.62-29.71-.42-33.04-.21-23.27v-4.78c-.21-35.95-.42-71.89-.21-107.63l.21-112.61.62-112.61,1.04-112.61c.83-75.01,1.87-150.01,3.53-225.02,1.66,75.01,2.7,150.01,3.53,225.02l1.04,112.61.62,112.61.21,112.61c.21,35.95,0,71.68-.21,107.63v4.78l-.21,10.8-.42,45.5-.62,29.92v.21h0c0,1.25.42,2.49,1.25,3.32.42.62,1.25,1.04,1.87,1.45,27.84.21,55.68.21,83.73.42l45.3.42,44.88,1.25Z"/>
          <path class="cls-2" d="m1333.72,270.94c1.87,51.11,2.7,102.02,3.32,153.13.42,25.56.42,51.11.83,76.67l.21,76.67-.21,76.67-.21,38.23-.21,19.12-.21,19.12c-.62,51.11-1.66,102.02-3.32,153.13-1.87-51.11-2.7-102.02-3.32-153.13l-.21-19.12-.21-19.12-.21-38.23-.21-76.67.21-76.67c.21-25.56.42-51.11.83-76.67.21-51.11,1.25-102.23,2.91-153.13Z"/>
          <path class="cls-2" d="m1362.18,520.69c1.87,30.13,2.7,60.46,3.32,90.59l.21,11.43.21,11.43.21,22.65.21,45.3-.21,45.3-.21,22.65-.21,11.43-.21,11.43c-.62,30.13-1.66,60.46-3.32,90.59-1.87-30.13-2.7-60.46-3.32-90.59l-.21-11.43-.21-11.43-.21-22.65-.21-45.3.21-45.3.21-22.65.21-11.43.21-11.43c.62-30.13,1.45-60.25,3.32-90.59Z"/>
          <path class="cls-2" d="m1277,883.47c-1.87-51.11-2.7-102.02-3.32-153.13l-.21-19.12-.21-19.12-.21-38.23-.21-76.67.21-76.67.21-38.23.21-19.12.21-19.12c.62-51.11,1.66-102.02,3.32-153.13,1.87,51.11,2.7,102.02,3.32,153.13l.21,19.12.21,19.12.21,38.23.21,76.67-.21,76.67-.21,38.23-.21,19.12-.21,19.12c-.62,51.11-1.45,102.02-3.32,153.13Z"/>
          <path class="cls-2" d="m1248.53,883.47c-1.87-30.13-2.7-60.46-3.32-90.59-.42-15.17-.42-30.13-.83-45.3l-.21-45.3.21-45.3.21-22.65.21-11.43.21-11.43c.62-30.13,1.66-60.46,3.32-90.59,1.87,30.13,2.7,60.46,3.32,90.59l.21,11.43.21,11.43.21,22.65.21,45.3-.21,45.3c-.21,15.17-.42,30.13-.83,45.3,0,30.13-1.04,60.26-2.91,90.59Z"/>
        </g>
        <path class="cls-2" d="m1306.71,1217.78h-2.08c-101.4,0-196.56-39.48-268.24-111.16-71.68-71.68-111.16-166.84-111.16-268.24v-458.98c0-101.4,39.48-196.56,111.16-268.24C1108.07,39.48,1203.23,0,1304.63,0h2.08c101.4,0,196.56,39.48,268.24,111.16,71.68,71.68,111.16,166.84,111.16,268.24v458.98c0,101.4-39.48,196.56-111.16,268.24-71.68,71.68-167.05,111.16-268.24,111.16h0Zm-2.08-1208.64c-204.24,0-370.26,166.22-370.26,370.26v458.98c0,204.24,166.22,370.26,370.26,370.26h2.08c204.24,0,370.26-166.22,370.26-370.26v-458.98c0-204.24-166.22-370.26-370.26-370.26h-2.08Z"/>
        <path class="cls-2" d="m1305.67,1188.69c-94.95,0-184.3-36.98-251.41-104.1-67.11-67.11-104.1-156.46-104.1-251.41v-447.97c0-94.95,36.98-184.3,104.1-251.41,67.11-67.11,156.46-104.1,251.41-104.1s184.3,36.98,251.41,104.1c67.11,67.11,104.1,156.46,104.1,251.41v447.97c0,94.95-36.98,184.3-104.1,251.41-67.11,67.11-156.46,104.1-251.41,104.1h0Zm0-1150.04c-191.15,0-346.57,155.42-346.57,346.57v447.97c0,191.15,155.42,346.57,346.57,346.57h0c191.15,0,346.57-155.42,346.57-346.57v-447.97c0-191.15-155.42-346.57-346.57-346.57Z"/>
      </g>
      <path class="cls-2" d="m452.95,1579.31h-4.16c-3.32-6.65-8.59-12.74-15.79-18.28-6.09-4.43-14.41-8.59-24.93-12.47-10.53-3.88-23.83-5.82-39.89-5.82h-115.52v493.68c0,11.64,1.52,20.36,4.57,26.18,3.05,5.82,6.51,10.11,10.39,12.88,3.88,3.32,8.59,4.99,14.13,4.99v3.32c-7.2-.55-14.13-1.11-20.78-1.66-6.09-.55-11.91-.97-17.45-1.25-5.54-.28-9.97-.42-13.3-.42s-7.9.14-13.71.42-11.77.69-17.87,1.25c-6.65.55-13.85,1.11-21.61,1.66v-3.32c5.54,0,10.25-1.39,14.13-4.16,3.88-2.77,7.2-7.2,9.97-13.3,2.77-6.09,4.16-14.68,4.16-25.76v-494.51h-120.51c-16.07,0-29.37,1.94-39.89,5.82-10.53,3.88-18.84,8.03-24.93,12.47-7.2,5.54-12.74,11.64-16.62,18.28H0l23.27-50.7h406.41l23.27,50.7h0Zm470.41-48.2c4.43-.55,9-.83,13.71-.83s9.28-.28,13.71-.83c4.99,0,9.97-.28,14.96-.83v2.49c-7.76,0-14.68,1.39-20.78,4.16-5.54,2.22-10.53,5.96-14.96,11.22-4.43,5.26-6.65,13.44-6.65,24.52,0,14.41-.14,31.72-.42,51.94-.28,20.22-.42,41.42-.42,63.58s-.14,44.6-.42,67.32c-.28,22.72-.42,43.77-.42,63.16v80.62c0,24.93-2.77,49.04-8.31,72.31-5.54,23.27-15.51,43.91-29.92,61.92-14.41,18.01-34.49,32.55-60.26,43.63-25.76,11.08-58.87,16.62-99.32,16.62-43.22,0-79.09-5.54-107.63-16.62-28.53-11.08-51.11-25.63-67.74-43.63-16.62-18.01-28.26-38.65-34.91-61.92-6.65-23.27-9.97-47.37-9.97-72.31v-322.47c0-11.64-1.52-20.36-4.57-26.18-3.05-5.82-6.23-10.11-9.56-12.88-4.43-3.32-9.42-4.99-14.96-4.99v-2.49c7.76.55,14.96,1.11,21.61,1.66,6.09.55,12.05.97,17.87,1.25,5.82.28,10.39.42,13.71.42s7.9-.14,13.71-.42c5.82-.28,11.5-.69,17.04-1.25,6.65-.55,13.57-1.11,20.78-1.66v2.49c-5.54,0-10.25,1.66-14.13,4.99-3.88,2.77-7.34,7.2-10.39,13.3-3.05,6.09-4.57,14.96-4.57,26.6v322.47c0,33.8,5.4,62.06,16.21,84.77,10.8,22.72,24.79,41,41.97,54.85,17.18,13.85,36.01,23.55,56.52,29.09,20.5,5.54,40.17,8.31,59.01,8.31,19.95,0,40.59-1.8,61.92-5.4,21.33-3.6,40.72-11.64,58.18-24.1,17.45-12.47,31.72-30.34,42.8-53.61,11.08-23.27,16.62-54.85,16.62-94.75v-327.46c0-10.53-2.22-18.42-6.65-23.69-4.43-5.26-9.14-9-14.13-11.22-6.65-2.77-13.85-4.16-21.61-4.16v-2.49c4.99.55,9.97.83,14.96.83,4.43.55,9,.83,13.71.83s9.28.28,13.71.83h0c2.22.55,5.26.83,9.14.83s7.2-.28,9.97-.83h.83Zm617.51,505.31c0,11.64,1.52,20.36,4.57,26.18,3.05,5.82,6.51,10.11,10.39,12.88,3.88,3.32,8.59,4.99,14.13,4.99v3.32c-7.2-.55-14.13-1.11-20.78-1.66-5.54-.55-11.22-.97-17.04-1.25-5.82-.28-10.39-.42-13.71-.42s-7.9.14-13.71.42c-5.82.28-11.77.69-17.87,1.25-6.65.55-13.85,1.11-21.61,1.66v-3.32c5.54,0,10.53-1.39,14.96-4.16,3.32-2.77,6.51-7.2,9.56-13.3,3.05-6.09,4.57-14.68,4.57-25.76v-418.88l-182.84,377.32-19.95,39.89h-12.47l-4.16-8.31-213.59-427.19v436.33c0,11.64,2.22,20.36,6.65,26.18s9.42,10.11,14.96,12.88c6.09,3.32,13.3,4.99,21.61,4.99v3.32c-4.99-.55-9.97-1.11-14.96-1.66-4.43-.55-9.14-.97-14.13-1.25-4.99-.28-9.7-.42-14.13-.42h-18.28c-4.43,0-9.14.14-14.13.42-4.99.28-9.7.69-14.13,1.25-4.99.55-9.97,1.11-14.96,1.66v-3.32c7.76,0,14.96-1.39,21.61-4.16,5.54-2.77,10.53-7.2,14.96-13.3,4.43-6.09,6.65-14.68,6.65-25.76v-462.09c0-3.32-.28-6.65-.83-9.97-.55-3.32-1.39-6.37-2.49-9.14l-4.16-7.48c-2.77-4.43-6.23-7.9-10.39-10.39-4.16-2.49-8.17-4.29-12.05-5.4-4.43-1.11-8.87-1.66-13.3-1.66v-2.49l26.6,1.66c2.77.55,5.54.83,8.31.83h8.31c2.77.55,6.09.83,9.97.83,3.32,0,6.09-.28,8.31-.83h8.73c3.05,0,5.96-.28,8.73-.83l3.32,6.65,218.58,437.16,193.65-399.76,20.78-42.39h3.32c2.22,0,4.85-.14,7.9-.42,3.05-.28,6.51-.42,10.39-.42,4.43-.55,8.59-.83,12.47-.83s7.2-.28,9.97-.83c3.88,0,7.48-.28,10.8-.83v2.49c-5.54,0-10.25,1.66-14.13,4.99-3.88,2.77-7.34,7.2-10.39,13.3-3.05,6.09-4.57,14.96-4.57,26.6v460.43h0Zm345.74-515.29c36.57,0,70.78,7.48,102.64,22.44,31.86,14.96,59.56,35.32,83.11,61.09,23.55,25.76,42.25,55.96,56.1,90.59,13.85,34.63,20.78,71.61,20.78,110.95s-6.93,76.46-20.78,111.37c-13.85,34.91-32.55,65.24-56.1,91.01-23.55,25.76-51.25,46.13-83.11,61.09-31.86,14.96-66.07,22.44-102.64,22.44s-70.78-7.48-102.64-22.44c-31.86-14.96-59.56-35.32-83.11-61.09-23.55-25.76-42.25-56.1-56.1-91.01-13.85-34.91-20.78-72.03-20.78-111.37s6.93-76.32,20.78-110.95c13.85-34.63,32.55-64.83,56.1-90.59,23.55-25.76,51.25-46.13,83.11-61.09,31.86-14.96,66.07-22.44,102.64-22.44h0Zm91.42,531.08c32.14-11.64,58.04-29.5,77.71-53.61,19.67-24.1,33.38-52.08,41.14-83.94,7.76-31.86,9.42-66.49,4.99-103.89-4.43-37.4-14.96-75.49-31.58-114.28-13.3-31.58-30.75-58.59-52.36-81.03-21.61-22.44-45.02-39.62-70.23-51.53-25.21-11.91-50.97-18.56-77.29-19.95-26.32-1.39-51.11,3.19-74.38,13.71-29.92,13.85-54.02,34.63-72.31,62.33-18.28,27.7-31.31,58.32-39.06,91.84-7.76,33.52-10.39,67.6-7.9,102.23,2.49,34.63,9.56,65.8,21.19,93.5,11.08,27.15,26.6,51.94,46.54,74.38,19.95,22.44,42.52,40.59,67.74,54.44,25.21,13.85,52.08,22.58,80.62,26.18,28.53,3.6,56.93.14,85.19-10.39h0Zm601.72,1.66c7.2,13.85,17.73,22.99,31.58,27.43v2.49c-6.09-.55-12.19-1.11-18.28-1.66-5.54-.55-11.36-.97-17.45-1.25-6.09-.28-11.64-.42-16.62-.42s-10.8.14-17.45.42c-6.65.28-13.02.69-19.12,1.25-7.2.55-14.68,1.11-22.44,1.66v-3.32c7.2-1.11,13.02-3.32,17.45-6.65,4.43-2.77,7.9-6.37,10.39-10.8,2.49-4.43,2.35-10.53-.42-18.28l-37.4-93.08c-11.08-27.15-22.16-49.45-33.24-66.9-11.08-17.45-22.86-31.3-35.32-41.56-12.47-10.25-25.76-17.31-39.89-21.19-14.13-3.88-30.06-6.09-47.79-6.65h-54.85v221.07c0,11.64,1.52,20.36,4.57,26.18,3.05,5.82,6.51,10.11,10.39,12.88,3.88,3.32,8.59,4.99,14.13,4.99v3.32c-7.2-.55-14.13-1.11-20.78-1.66-5.54-.55-11.22-.97-17.04-1.25-5.82-.28-10.39-.42-13.71-.42s-7.9.14-13.71.42-11.77.69-17.87,1.25c-6.65.55-13.85,1.11-21.61,1.66v-3.32c5.54,0,10.53-1.39,14.96-4.16,3.32-2.77,6.51-7.2,9.56-13.3,3.05-6.09,4.57-14.68,4.57-25.76v-462.93c0-11.64-1.52-20.36-4.57-26.18-3.05-5.82-6.23-10.11-9.56-12.88-4.43-2.77-9.42-4.16-14.96-4.16v-2.49l247.67.83c19.39,0,37.4,4.02,54.02,12.05,16.62,8.03,31.03,18.7,43.22,32,12.19,13.3,21.89,28.4,29.09,45.3,7.2,16.9,10.8,34.49,10.8,52.78,0,19.95-4.16,38.65-12.47,56.1-8.31,17.45-19.81,32.69-34.49,45.71-14.68,13.02-31.72,23.27-51.11,30.75-19.39,7.48-40.17,11.22-62.33,11.22h-16.62c17.18,4.99,32,11.22,44.46,18.7,12.47,7.48,22.99,15.51,31.58,24.1,8.59,8.59,15.65,17.18,21.19,25.76,5.54,8.59,9.97,15.93,13.3,22.02,2.77,6.09,4.99,11.64,6.65,16.62l51.53,131.31h0Zm-152.09-247.67c6.09,0,12.05-.42,17.87-1.25,5.82-.83,11.5-2.35,17.04-4.57,16.62-5.54,30.61-13.71,41.97-24.52,11.36-10.8,19.95-23.41,25.76-37.82,5.82-14.41,8.73-30.2,8.73-47.37s-3.32-34.91-9.97-53.19c-9.42-26.04-23.27-47.65-41.56-64.83-18.28-17.18-43.49-25.76-75.63-25.76h-132.98v259.31h148.77Z"/>
      <g>
        <polygon class="cls-1" points="290.06 2225.58 314.43 2225.58 314.43 2287.82 324.48 2287.82 324.48 2225.58 348.84 2225.58 348.84 2216.75 290.06 2216.75 290.06 2225.58"/>
        <path class="cls-1" d="m408.24,2256.75c0,7.92-1.74,13.7-5.23,17.36-3.49,3.66-8.44,5.48-14.87,5.48s-11.29-1.83-14.77-5.48c-3.49-3.66-5.23-9.44-5.23-17.36v-40h-10.15v40.41c0,10.29,2.67,18.11,8.02,23.45,5.35,5.35,12.69,8.02,22.03,8.02s16.77-2.67,22.08-8.02c5.31-5.34,7.97-13.16,7.97-23.45v-40.41h-9.85v40Z"/>
        <path class="cls-1" d="m482.55,2263.25c4.4-1.96,7.78-4.79,10.15-8.48,2.37-3.69,3.55-8.1,3.55-13.25s-1.19-9.58-3.55-13.3c-2.37-3.72-5.75-6.57-10.15-8.53-4.4-1.97-9.71-2.94-15.94-2.94h-27.72v71.07h10.15v-21.63h17.56c1.56,0,3.07-.06,4.51-.19l15.28,21.81h11.07l-16.86-23.8c.66-.24,1.31-.49,1.94-.77Zm-16.24-5.68h-17.26v-31.98h17.26c6.5,0,11.42,1.39,14.77,4.16,3.35,2.78,5.03,6.7,5.03,11.78s-1.68,9.02-5.03,11.83c-3.35,2.81-8.27,4.22-14.77,4.22Z"/>
        <path class="cls-1" d="m534.13,2216.75l-32.18,71.07h10.46l7.81-17.77h37.79l7.81,17.77h10.66l-32.28-71.07h-10.05Zm-10.35,45.18l15.32-34.87,15.33,34.87h-30.65Z"/>
        <path class="cls-1" d="m630.68,2263.25c4.4-1.96,7.78-4.79,10.15-8.48,2.37-3.69,3.55-8.1,3.55-13.25s-1.19-9.58-3.55-13.3c-2.37-3.72-5.75-6.57-10.15-8.53-4.4-1.97-9.71-2.94-15.94-2.94h-27.72v71.07h10.15v-21.63h17.56c1.56,0,3.07-.06,4.51-.19l15.28,21.81h11.07l-16.86-23.8c.66-.24,1.31-.49,1.94-.77Zm-16.24-5.68h-17.26v-31.98h17.26c6.5,0,11.42,1.39,14.77,4.16,3.35,2.78,5.03,6.7,5.03,11.78s-1.68,9.02-5.03,11.83c-3.35,2.81-8.27,4.22-14.77,4.22Z"/>
        <rect class="cls-1" x="656.98" y="2247.72" width="27.31" height="8.43"/>
        <path class="cls-1" d="m694.13,2225.58h25.69v39.9c0,9.61-4.06,14.42-12.18,14.42-2.98,0-5.7-.73-8.17-2.18-2.47-1.45-4.69-3.53-6.65-6.24l-5.89,6.9c2.3,3.32,5.28,5.85,8.93,7.61,3.65,1.76,7.58,2.64,11.78,2.64,7.31,0,12.84-1.96,16.6-5.89,3.76-3.92,5.63-9.85,5.63-17.77v-48.22h-35.74v8.83Z"/>
        <path class="cls-1" d="m809.62,2226.24c-3.42-3.28-7.41-5.82-11.98-7.61-4.57-1.8-9.56-2.69-14.97-2.69s-10.53.91-15.13,2.74c-4.6,1.83-8.6,4.38-11.98,7.67-3.39,3.28-6.03,7.13-7.92,11.52-1.9,4.4-2.84,9.21-2.84,14.42s.95,10.02,2.84,14.42c1.89,4.4,4.53,8.24,7.92,11.52,3.38,3.28,7.39,5.84,12.03,7.67,4.63,1.83,9.66,2.74,15.08,2.74s10.41-.9,14.97-2.69c4.57-1.79,8.56-4.33,11.98-7.61,3.42-3.28,6.06-7.12,7.92-11.52,1.86-4.4,2.79-9.24,2.79-14.52s-.93-10.11-2.79-14.52c-1.86-4.4-4.5-8.24-7.92-11.52Zm-1.52,36.9c-1.39,3.32-3.32,6.21-5.79,8.68-2.47,2.47-5.38,4.38-8.73,5.74-3.35,1.35-6.99,2.03-10.91,2.03s-7.67-.68-11.02-2.03c-3.35-1.35-6.28-3.26-8.78-5.74-2.51-2.47-4.45-5.36-5.84-8.68-1.39-3.32-2.08-6.94-2.08-10.86s.69-7.55,2.08-10.86c1.39-3.32,3.33-6.21,5.84-8.68,2.5-2.47,5.43-4.38,8.78-5.74,3.35-1.35,7.02-2.03,11.02-2.03s7.56.68,10.91,2.03c3.35,1.35,6.26,3.26,8.73,5.74,2.47,2.47,4.4,5.36,5.79,8.68,1.39,3.32,2.08,6.94,2.08,10.86s-.69,7.55-2.08,10.86Z"/>
        <polygon class="cls-1" points="878.2 2216.75 855.36 2254.24 832.61 2216.75 821.75 2216.75 849.97 2263.07 849.97 2287.82 860.03 2287.82 860.03 2263.22 888.25 2216.75 878.2 2216.75"/>
        <polygon class="cls-1" points="993.02 2216.75 963.77 2266.67 934.14 2216.75 925.81 2216.75 925.81 2287.82 935.56 2287.82 935.56 2236.32 961.25 2279.19 965.92 2279.19 991.61 2235.99 991.7 2287.82 1001.45 2287.82 1001.35 2216.75 993.02 2216.75"/>
        <path class="cls-1" d="m1044.19,2216.75l-32.18,71.07h10.46l7.81-17.77h37.79l7.81,17.77h10.66l-32.28-71.07h-10.05Zm-10.35,45.18l15.32-34.87,15.33,34.87h-30.65Z"/>
        <path class="cls-1" d="m1094.25,2225.58h25.68v39.9c0,9.61-4.06,14.42-12.18,14.42-2.98,0-5.7-.73-8.17-2.18-2.47-1.45-4.69-3.53-6.65-6.24l-5.89,6.9c2.3,3.32,5.28,5.85,8.93,7.61,3.65,1.76,7.58,2.64,11.78,2.64,7.31,0,12.84-1.96,16.6-5.89,3.76-3.92,5.64-9.85,5.64-17.77v-48.22h-35.74v8.83Z"/>
        <polygon class="cls-1" points="1217.9 2216.75 1188.65 2266.67 1159.02 2216.75 1150.69 2216.75 1150.69 2287.82 1160.44 2287.82 1160.44 2236.32 1186.13 2279.19 1190.8 2279.19 1216.49 2236 1216.58 2287.82 1226.33 2287.82 1226.23 2216.75 1217.9 2216.75"/>
        <path class="cls-1" d="m1297.29,2256.75c0,7.92-1.74,13.7-5.23,17.36-3.49,3.66-8.44,5.48-14.87,5.48s-11.29-1.83-14.77-5.48c-3.49-3.66-5.23-9.44-5.23-17.36v-40h-10.15v40.41c0,10.29,2.67,18.11,8.02,23.45,5.34,5.35,12.69,8.02,22.03,8.02s16.77-2.67,22.08-8.02c5.31-5.34,7.97-13.16,7.97-23.45v-40.41h-9.85v40Z"/>
        <path class="cls-1" d="m1347.85,2216.75l-32.18,71.07h10.46l7.81-17.77h37.79l7.81,17.77h10.66l-32.29-71.07h-10.05Zm-10.35,45.18l15.33-34.87,15.32,34.87h-30.65Z"/>
        <path class="cls-1" d="m1440.49,2253.61c-2.54-1.42-5.35-2.57-8.42-3.45-3.08-.88-6.14-1.67-9.19-2.39-3.05-.71-5.84-1.5-8.38-2.39-2.54-.88-4.6-2.06-6.19-3.55-1.59-1.49-2.39-3.49-2.39-5.99,0-2.1.59-3.99,1.78-5.69,1.18-1.69,3.06-3.05,5.64-4.06,2.57-1.02,5.85-1.52,9.85-1.52,3.18,0,6.46.46,9.85,1.37s6.6,2.39,9.65,4.42l3.35-8.12c-2.98-2.03-6.5-3.59-10.56-4.67-4.06-1.08-8.16-1.62-12.28-1.62-6.23,0-11.35.93-15.38,2.79-4.03,1.86-7,4.33-8.93,7.41-1.93,3.08-2.89,6.45-2.89,10.1s.78,6.89,2.33,9.29c1.56,2.4,3.6,4.32,6.14,5.74s5.35,2.59,8.43,3.5c3.08.91,6.14,1.71,9.19,2.39,3.05.68,5.84,1.47,8.38,2.39,2.54.91,4.6,2.12,6.19,3.6,1.59,1.49,2.39,3.45,2.39,5.89,0,2.1-.61,3.98-1.83,5.64-1.22,1.66-3.11,2.96-5.68,3.91-2.57.95-5.92,1.42-10.05,1.42-4.53,0-8.9-.78-13.1-2.34-4.2-1.56-7.65-3.52-10.35-5.89l-3.76,7.92c2.84,2.64,6.73,4.79,11.67,6.45,4.94,1.66,10.12,2.49,15.53,2.49,6.23,0,11.39-.93,15.48-2.79,4.09-1.86,7.12-4.33,9.09-7.41,1.96-3.08,2.94-6.41,2.94-10s-.78-6.77-2.34-9.14c-1.56-2.37-3.6-4.26-6.14-5.68Z"/>
        <rect class="cls-1" x="1463.79" y="2216.75" width="10.15" height="71.07"/>
        <polygon class="cls-1" points="1509.07 2297.97 1517.91 2297.97 1551.41 2202.33 1542.58 2202.33 1509.07 2297.97"/>
        <path class="cls-1" d="m1626.74,2236.95c-4.06-2.3-8.73-3.45-14.01-3.45-4.47,0-8.55,1.02-12.23,3.05-2.54,1.4-4.72,3.29-6.55,5.64v-29.7h-9.75v75.33h9.34v-8.51c1.85,2.52,4.09,4.53,6.75,6.02,3.69,2.07,7.83,3.1,12.44,3.1,5.28,0,9.95-1.15,14.01-3.45,4.06-2.3,7.27-5.52,9.65-9.65,2.37-4.13,3.55-8.93,3.55-14.42s-1.18-10.27-3.55-14.37c-2.37-4.09-5.58-7.29-9.65-9.59Zm.97,33.96c-1.59,2.88-3.76,5.09-6.5,6.65-2.74,1.56-5.84,2.34-9.29,2.34s-6.45-.78-9.19-2.34c-2.74-1.56-4.91-3.77-6.5-6.65-1.59-2.88-2.39-6.21-2.39-10s.79-7.19,2.39-10c1.59-2.81,3.76-4.99,6.5-6.55,2.74-1.56,5.8-2.34,9.19-2.34s6.55.78,9.29,2.34c2.74,1.56,4.91,3.74,6.5,6.55,1.59,2.81,2.39,6.14,2.39,10s-.79,7.12-2.39,10Z"/>
        <path class="cls-1" d="m1671.4,2277.01l-18.77-43h-10.15l23.74,53.67-1.71,3.79c-1.35,3.11-2.81,5.28-4.36,6.5-1.56,1.22-3.52,1.83-5.89,1.83-1.83,0-3.55-.34-5.18-1.02s-3.11-1.66-4.47-2.94l-4.16,7.31c1.76,1.62,3.86,2.86,6.3,3.71,2.43.84,4.94,1.27,7.51,1.27,2.77,0,5.31-.45,7.61-1.37,2.3-.91,4.42-2.45,6.35-4.62,1.93-2.17,3.67-5.15,5.23-8.93l26.09-59.19h-9.54l-18.6,43Z"/>
        <polygon class="cls-1" points="1785.93 2216.75 1727.15 2216.75 1727.15 2225.58 1751.51 2225.58 1751.51 2287.82 1761.57 2287.82 1761.57 2225.58 1785.93 2225.58 1785.93 2216.75"/>
        <polygon class="cls-1" points="1848.47 2216.75 1837.41 2216.75 1817.69 2244.01 1797.81 2216.75 1786.24 2216.75 1811.31 2251.4 1784.61 2287.82 1796.29 2287.82 1817.32 2258.52 1838.63 2287.82 1850.3 2287.82 1823.42 2251.06 1848.47 2216.75"/>
        <polygon class="cls-1" points="1848.98 2225.58 1873.34 2225.58 1873.34 2287.82 1883.4 2287.82 1883.4 2225.58 1907.76 2225.58 1907.76 2216.75 1848.98 2216.75 1848.98 2225.58"/>
        <path class="cls-1" d="m1958.48,2232.69c2.54-2.44,5.55-4.33,9.03-5.68s7.26-2.03,11.32-2.03,7.7.66,11.12,1.98c3.42,1.32,6.58,3.4,9.49,6.24l6.3-6.29c-3.25-3.66-7.21-6.4-11.88-8.23-4.67-1.83-9.82-2.74-15.43-2.74s-10.62.9-15.23,2.69c-4.6,1.79-8.61,4.33-12.03,7.61-3.42,3.28-6.07,7.12-7.97,11.52-1.9,4.4-2.84,9.24-2.84,14.52s.95,10.12,2.84,14.52c1.9,4.4,4.53,8.24,7.92,11.52,3.38,3.28,7.37,5.82,11.98,7.61,4.6,1.8,9.65,2.69,15.13,2.69,5.01,0,9.86-.76,14.57-2.28,4.7-1.52,8.81-3.77,12.33-6.75v-27.72h-9.75v23.12c-1.83,1.2-3.74,2.15-5.74,2.83-3.49,1.18-7.13,1.78-10.91,1.78-4.06,0-7.82-.68-11.27-2.03-3.45-1.35-6.44-3.26-8.98-5.74-2.54-2.47-4.5-5.38-5.89-8.73-1.39-3.35-2.08-6.95-2.08-10.81s.69-7.56,2.08-10.91c1.39-3.35,3.35-6.24,5.89-8.68Z"/>
        <path class="cls-1" d="m2068.17,2263.25c4.4-1.96,7.78-4.79,10.15-8.48,2.37-3.69,3.55-8.1,3.55-13.25s-1.18-9.58-3.55-13.3c-2.37-3.72-5.75-6.57-10.15-8.53-4.4-1.97-9.71-2.94-15.94-2.94h-27.72v71.07h10.15v-21.63h17.57c1.56,0,3.07-.06,4.51-.19l15.28,21.81h11.07l-16.86-23.8c.66-.24,1.31-.49,1.94-.77Zm-16.24-5.68h-17.26v-31.98h17.26c6.5,0,11.42,1.39,14.77,4.16,3.35,2.78,5.03,6.7,5.03,11.78s-1.68,9.02-5.03,11.83c-3.35,2.81-8.27,4.22-14.77,4.22Z"/>
        <path class="cls-1" d="m2157.36,2226.24c-3.42-3.28-7.41-5.82-11.98-7.61-4.57-1.8-9.56-2.69-14.98-2.69s-10.52.91-15.13,2.74c-4.6,1.83-8.6,4.38-11.98,7.67-3.39,3.28-6.02,7.13-7.92,11.52-1.9,4.4-2.84,9.21-2.84,14.42s.95,10.02,2.84,14.42c1.9,4.4,4.53,8.24,7.92,11.52,3.38,3.28,7.39,5.84,12.03,7.67,4.64,1.83,9.66,2.74,15.08,2.74s10.41-.9,14.98-2.69c4.57-1.79,8.56-4.33,11.98-7.61,3.42-3.28,6.06-7.12,7.92-11.52,1.86-4.4,2.79-9.24,2.79-14.52s-.93-10.11-2.79-14.52c-1.86-4.4-4.5-8.24-7.92-11.52Zm-1.52,36.9c-1.39,3.32-3.32,6.21-5.78,8.68s-5.38,4.38-8.73,5.74c-3.35,1.35-6.99,2.03-10.91,2.03s-7.67-.68-11.02-2.03c-3.35-1.35-6.28-3.26-8.78-5.74-2.5-2.47-4.45-5.36-5.84-8.68-1.39-3.32-2.08-6.94-2.08-10.86s.69-7.55,2.08-10.86c1.39-3.32,3.33-6.21,5.84-8.68,2.5-2.47,5.43-4.38,8.78-5.74,3.35-1.35,7.02-2.03,11.02-2.03s7.56.68,10.91,2.03c3.35,1.35,6.26,3.26,8.73,5.74,2.47,2.47,4.4,5.36,5.78,8.68,1.39,3.32,2.08,6.94,2.08,10.86s-.69,7.55-2.08,10.86Z"/>
        <path class="cls-1" d="m2233.25,2256.75c0,7.92-1.74,13.7-5.23,17.36-3.49,3.66-8.44,5.48-14.87,5.48s-11.29-1.83-14.77-5.48c-3.49-3.66-5.23-9.44-5.23-17.36v-40h-10.15v40.41c0,10.29,2.67,18.11,8.02,23.45,5.34,5.35,12.69,8.02,22.03,8.02s16.77-2.67,22.08-8.02c5.31-5.34,7.97-13.16,7.97-23.45v-40.41h-9.85v40Z"/>
        <path class="cls-1" d="m2317.72,2228.22c-2.37-3.72-5.75-6.57-10.15-8.53-4.4-1.97-9.71-2.94-15.94-2.94h-27.72v71.07h10.15v-21.52h17.57c6.23,0,11.54-1,15.94-2.99,4.4-2,7.78-4.84,10.15-8.53,2.37-3.69,3.55-8.1,3.55-13.25s-1.18-9.58-3.55-13.3Zm-11.63,25.08c-3.35,2.77-8.27,4.16-14.77,4.16h-17.26v-31.88h17.26c6.5,0,11.42,1.39,14.77,4.16,3.35,2.78,5.03,6.7,5.03,11.78s-1.68,9-5.03,11.78Z"/>
      </g>
    </g>
  </g>
</svg>